<svg width="284" height="53" viewBox="0 0 284 53" fill="none" xmlns="http://www.w3.org/2000/svg">
<path d="M37.2982 10.2756H17.5838C16.7792 10.2756 16.6068 10.3335 16.1471 10.7971L0.517212 25.399C0.057468 25.8626 0 26.0364 0 26.8477V35.4243C0 40.2906 2.41366 42.7245 7.24097 42.7245H26.9554C27.7585 42.7245 27.9309 42.6665 28.3906 42.2029L44.0219 27.6011C44.4802 27.1375 44.5377 26.9636 44.5377 26.1523V17.5772C44.5377 12.7095 42.1255 10.2756 37.2982 10.2756Z" fill="white"/>
<path d="M68.0253 41.5517C61.267 41.5517 56.7156 37.2301 56.7156 31.8511H62.2785C62.3244 34.3337 64.6691 36.5865 68.1632 36.5865C71.3814 36.5865 73.4502 34.6096 73.4502 32.1269C73.4502 29.9202 71.5653 28.6329 68.8988 27.8973L64.945 26.7939C58.1408 25.0469 56.9454 20.9552 56.9454 18.1967C56.9454 12.5878 61.8647 8.77195 67.7034 8.77195C73.4962 8.77195 78.0477 12.358 78.0477 18.2886H72.4848C72.4848 15.6681 70.5079 13.7832 67.5655 13.7832C64.853 13.7832 62.6003 15.6221 62.6003 18.1047C62.6003 18.9783 62.8761 20.8172 66.5081 21.7827L70.278 22.8861C75.2432 24.2653 79.0591 26.8399 79.0591 31.8971C79.0591 37.6898 74.2318 41.5517 68.0253 41.5517ZM89.6957 19.53H94.2472V23.7596H89.6957V41H84.3627V23.7596H80.5008V19.53H84.3627V11.6224H89.6957V19.53ZM108.44 18.9783C109.727 18.9783 111.106 19.2541 111.934 19.7139L110.876 24.771C109.635 24.1274 108.532 23.9895 107.75 23.9895C104.256 23.9895 102.325 27.4835 102.325 33.5062V41H96.946V19.53H102.279V24.1274C103.428 20.5414 105.773 18.9783 108.44 18.9783ZM129.097 31.0236V19.53H134.43V41H129.097V37.6439C127.993 40.3564 124.591 41.5517 122.431 41.5517C116.914 41.5517 113.833 37.8278 113.833 31.5752V19.53H119.166V31.3454C119.166 34.7935 121.235 36.5865 123.626 36.5865C126.063 36.5865 129.097 35.2072 129.097 31.0236ZM149.697 41.5517C143.49 41.5517 138.019 37.0462 138.019 30.242C138.019 23.4378 143.49 18.9783 149.697 18.9783C153.421 18.9783 156.455 20.6333 158.432 23.116L154.662 26.1043C153.559 24.771 151.72 23.9435 149.789 23.9435C146.065 23.9435 143.398 26.61 143.398 30.242C143.398 33.828 146.065 36.5865 149.789 36.5865C151.72 36.5865 153.559 35.7589 154.662 34.4257L158.432 37.414C156.455 39.8966 153.421 41.5517 149.697 41.5517ZM168.899 19.53H173.451V23.7596H168.899V41H163.566V23.7596H159.704V19.53H163.566V11.6224H168.899V19.53ZM188.149 18.9783C194.171 18.9783 199.045 23.7136 199.045 30.242C199.045 36.7704 194.171 41.5517 188.149 41.5517C184.563 41.5517 181.161 39.7127 179.598 36.7704V41H176.655V7.85246H179.598V23.7136C181.207 20.7713 184.517 18.9783 188.149 18.9783ZM187.919 38.7473C192.47 38.7473 196.148 34.9774 196.148 30.196C196.148 25.4607 192.47 21.7827 187.919 21.7827C183.643 21.7827 179.598 25.1388 179.598 30.3339C179.598 35.2992 183.459 38.7473 187.919 38.7473ZM213.308 41.5517C207.193 41.5517 202.09 37.0462 202.09 30.242C202.09 23.4378 207.193 18.9783 213.308 18.9783C219.422 18.9783 224.571 23.4378 224.571 30.242C224.571 37.0462 219.422 41.5517 213.308 41.5517ZM213.308 38.7473C217.813 38.7473 221.629 35.2992 221.629 30.242C221.629 25.1848 217.813 21.7827 213.308 21.7827C208.756 21.7827 205.032 25.1848 205.032 30.242C205.032 35.2992 208.756 38.7473 213.308 38.7473ZM238.777 41.5517C232.662 41.5517 227.559 37.0462 227.559 30.242C227.559 23.4378 232.662 18.9783 238.777 18.9783C244.891 18.9783 250.04 23.4378 250.04 30.242C250.04 37.0462 244.891 41.5517 238.777 41.5517ZM238.777 38.7473C243.282 38.7473 247.098 35.2992 247.098 30.242C247.098 25.1848 243.282 21.7827 238.777 21.7827C234.225 21.7827 230.501 25.1848 230.501 30.242C230.501 35.2992 234.225 38.7473 238.777 38.7473ZM260.568 41.5517C256.844 41.5517 253.12 39.3909 252.752 35.2992H255.465C255.786 37.0922 257.442 38.9312 260.568 38.9312C263.648 38.9312 265.533 37.322 265.533 35.1613C265.533 33.4142 264.338 32.2649 262.131 31.7132L259.051 30.9776C256.016 30.242 253.58 28.6789 253.58 25.0929C253.58 21.5988 256.568 18.9783 260.66 18.9783C264.246 18.9783 267.556 20.9552 267.694 24.817H264.843C264.706 22.8861 262.821 21.5988 260.706 21.5988C258.223 21.5988 256.522 23.116 256.522 25.1388C256.522 27.1617 258.269 28.0352 259.832 28.403L263.004 29.1846C267.188 30.196 268.475 32.7246 268.475 35.2072C268.475 39.0231 265.027 41.5517 260.568 41.5517ZM277.197 19.53H282.117V22.0585H277.197V41H274.301V22.0585H270.393V19.53H274.301V11.4844H277.197V19.53Z" fill="white"/>
</svg>
